<svg id="Layer_1" data-name="Layer 1" xmlns="http://www.w3.org/2000/svg" viewBox="0 0 24 24"><defs><style>.cls-1{fill:#00b6f1;}</style></defs><title>twitter</title><path class="cls-1" d="M12,0A12,12,0,1,0,24,12,12,12,0,0,0,12,0Zm6.07,9.65A8.17,8.17,0,0,1,5.5,16.9a5.78,5.78,0,0,0,4.25-1.19,2.88,2.88,0,0,1-2.68-2,2.88,2.88,0,0,0,1.3,0,2.88,2.88,0,0,1-2.3-2.85,2.87,2.87,0,0,0,1.3.36,2.88,2.88,0,0,1-.89-3.84,8.15,8.15,0,0,0,5.92,3,2.87,2.87,0,0,1,4.9-2.62A5.73,5.73,0,0,0,19.11,7a2.88,2.88,0,0,1-1.26,1.59,5.73,5.73,0,0,0,1.65-.45A5.77,5.77,0,0,1,18.07,9.64Z" transform="translate(0 0)"/></svg>