<?xml version="1.0" encoding="utf-8"?>
<!-- Generator: Adobe Illustrator 19.2.1, SVG Export Plug-In . SVG Version: 6.00 Build 0)  -->
<svg version="1.1" xmlns="http://www.w3.org/2000/svg" xmlns:xlink="http://www.w3.org/1999/xlink" x="0px" y="0px"
	 viewBox="0 0 908.7 483.8" style="enable-background:new 0 0 908.7 483.8;" xml:space="preserve">
<style type="text/css">
	.st0{fill:#FFFFFF;}
</style>
<g id="Layer_1">
	<g>
		<path class="st0" d="M234,149.5c48.6,0,64.8-23.3,69.4-44.4h4.9l-2.9,49.3H190.2l84-144.9c-43.4,0-65.5,12-71.7,37.9h-4.9
			l1.6-42.8h114.1L234,149.5z"/>
		<path class="st0" d="M472,115.5c-4.2,15.9-23,41.8-63.9,41.8c-41.2,0-70.4-36.3-70.4-76.8c0-46.7,30.8-78.8,73.3-78.8
			s66.1,24,66.1,74.9H374c1.9,37.6,19.8,54.8,43.1,58.4c18.8,2.9,43.1-6.2,50.3-21.7L472,115.5z M443.4,71.7
			c0-44.1-17.2-65.2-33.7-65.2c-18.8,0-35.7,29.2-35.7,65.2H443.4z"/>
		<path class="st0" d="M585.4,157.3c-15.6,0-29.2-4.2-39.2-11v61.3c0,17.8-47.3,32.7-47.3,32.7v-4.9c12.3-3.6,13-11.4,13-27.9V35.4
			c0-11.4-2.9-14.3-16.2-17.8v-4.9l50.6-11v25.6c10-18.2,32.7-25.6,48.6-25.6c39.9,0,68.4,31.1,68.4,79.1
			C663.2,132,629.8,157.3,585.4,157.3z M581.2,12.7c-20.4,0-33.1,15.6-35,36.3v60c2.3,31.1,20.1,43.4,38.6,43.4
			c22.7,0,38.6-17.2,38.6-67.8C623.4,32.8,608.4,12.7,581.2,12.7z"/>
	</g>
	<g>
		<g>
			<path class="st0" d="M319.8,357.3c-4.2,15.9-23,41.8-63.9,41.8c-41.2,0-70.4-36.3-70.4-76.8c0-46.7,30.8-78.8,73.3-78.8
				s66.1,24,66.1,74.9h-103c1.9,37.6,19.8,54.8,43.1,58.4c18.8,2.9,43.1-6.2,50.3-21.7L319.8,357.3z M291.3,313.5
				c0-44.1-17.2-65.2-33.7-65.2c-18.8,0-35.7,29.2-35.7,65.2H291.3z"/>
			<path class="st0" d="M411.2,399.1c-39.2,0-57.7-13.9-57.7-13.9v-42.5h4.9c3.6,17.2,12.6,51.6,52.8,51.6c28.5,0,28.5-31.8,3.9-48
				l-32.7-19.8c-31.4-20.1-39.2-42.8-23.7-65.5c0,0,11-17.5,43.8-17.5c37.3,0,53.2,10.1,53.2,10.1v37.9h-4.9
				c-3.2-15.2-13-43.1-48.3-43.1c-25.9,0-31.8,27.6-3.6,45.4l32.7,20.4c29.2,18.2,38.6,45.4,22.7,68.1
				C454.4,382.2,442.7,399.1,411.2,399.1z"/>
			<path class="st0" d="M715,270.4c-2.9-3.6-4.2-7.8-3.2-12c0.3-2.6-8.8-1-14.3,6.5c7.8,8.1,12,19.5,12,31.1
				c0,26.3-23,49.3-61.9,49.3c-12.7,0-22.4-1.6-30.5-5.2c-11.7,3.2-29.8,33.4,6.5,33.4h42.1c22.4,0,60.6,0.6,54.8,46.4
				c0,0-1.3,26.3-35.3,45.4c-44.7,25-99.9,21.1-112.8-4.5c-11.7-22.7,5.5-47.7,25.6-58c-9.1-4.2-15.6-13-15.6-25.9
				c0,0-1-28.5,29.8-38.9c-16.5-7.1-25.9-24.6-25.9-41.8c0-26.3,23-49,61.3-49c20.4,0,36,5.5,46.4,14.6c8.8-13,22.4-17.5,29.8-18.5
				c5.8-1,12.3,1,16.5,5.5c5.8,7.1,4.9,17.5-1.9,23.3C731.2,278.2,720.9,277.2,715,270.4z M682.6,461c23.3-14.3,20.8-34.4,20.8-34.4
				s-1.9-16.9-27.6-16.9h-44.7c-3.6,0-15.9,0.6-27.9-4.2c-30.5,18.5-6.5,45.7-6.8,45.4C612.9,470.7,653.1,478.8,682.6,461z
				 M647.6,251.9c-16.2,0-28.2,7.8-28.2,44.1s13.9,44.4,28.2,44.4c14.9,0,28.9-8.1,28.9-44.4C676.4,259.7,661.5,251.9,647.6,251.9z"
				/>
			<path class="st0" d="M906.9,396.2h-60.6v-4.9c12.3-3.6,13-13.3,13-29.8V295c0-18.8-11-31.8-29.8-31.8
				c-14.6,0-29.2,14.9-30.5,27.2v71.3c0,17.8,1.9,26.3,13.3,29.5v4.9H752v-4.9c12.3-3.6,12.6-13,12.6-29.5V280
				c0-11.4-2.9-15.2-16.2-20.8v-4.9l50.6-11v34.4c7.1-19.5,31.4-34.4,51.9-34.4c25.6,0,42.8,11.4,42.8,50.6v67.4
				c0,17.8,1.6,26.9,13.3,29.8L906.9,396.2L906.9,396.2z"/>
		</g>
		<path class="st0" d="M79.4,244.6c15.6,0,29.2,4.2,39.2,11v-61.3c0-17.8,47.3-32.8,47.3-32.8v4.9c-12.3,3.6-13,11.4-13,27.9v172.2
			c0,11.4,2.9,14.3,16.2,17.8v4.9l-50.6,11v-25.6c-10,18.2-32.7,25.6-48.6,25.6c-39.9,0-68.4-31.1-68.4-79.1
			C1.6,269.9,35,244.6,79.4,244.6z M83.7,389.2c20.4,0,33.1-15.6,35-36.3v-60c-2.3-31.1-20.1-43.4-38.6-43.4
			c-22.7,0-38.6,17.2-38.6,67.8C41.5,369.1,56.4,389.2,83.7,389.2z"/>
	</g>
	<path class="st0" d="M539.3,361.5v-52.9l-0.1-44.7c0-16.5,0.6-24.3,12.9-27.9v-4.9c0,0-47.2,14.9-47.2,32.8l0.4,62v35.6
		c0,16.5-1,25.9-13,29.8v4.7h60v-4.7C540.3,388.1,539.3,379.3,539.3,361.5z"/>
</g>
<g id="Layer_2">
</g>
</svg>
